<?xml version="1.0" encoding="UTF-8" standalone="no"?>
<!-- Created with Inkscape (http://www.inkscape.org/) -->

<svg
   width="499.58194"
   height="498.94778"
   viewBox="0 0 132.18105 132.01327"
   version="1.1"
   id="svg1"
   xml:space="preserve"
   xmlns="http://www.w3.org/2000/svg"
   xmlns:svg="http://www.w3.org/2000/svg"><defs
     id="defs1" /><g
     id="layer4"
     transform="translate(-0.05530482,-0.13919955)"><path
       style="fill:#047857;fill-opacity:1"
       d="m 61.910611,132.10413 c -0.50932,-0.0592 -2.05713,-0.23441 -3.43958,-0.38927 -1.38245,-0.15486 -3.52557,-0.46512 -4.7625,-0.68947 -1.23693,-0.22435 -3.63879,-0.80719 -5.33748,-1.2952 -1.698688,-0.48802 -4.258532,-1.32309 -5.688542,-1.85572 -1.43001,-0.53263 -4.266894,-1.81134 -6.304186,-2.84158 -2.037292,-1.03023 -5.251979,-2.90814 -7.14375,-4.17313 -1.891771,-1.26498 -4.763701,-3.43905 -6.382068,-4.83127 -1.618366,-1.39222 -3.86048,-3.51897 -4.982476,-4.72612 -1.121995,-1.20715 -2.928611,-3.35364 -4.014702,-4.76996 -1.08609,-1.41633 -2.751018,-3.79758 -3.699839,-5.29167 -0.9488217,-1.494093 -2.4803417,-4.264343 -3.4033787,-6.156123 -0.923037,-1.89177 -2.273927,-5.1752 -3.001978,-7.29651 -0.728052,-2.12131 -1.633957,-5.24013 -2.013122,-6.93071 -0.379166,-1.69058 -0.86546797,-4.3281 -1.08066997,-5.86115 -0.21520301,-1.53305 -0.46552801,-4.48642 -0.55627901,-6.56304 -0.09361,-2.14212 -0.03614,-5.26381 0.132842,-7.21525 0.163814,-1.891774 0.48698201,-4.570681 0.71815201,-5.953129 0.23116997,-1.382448 0.81471397,-4.061354 1.29676397,-5.953125 0.482051,-1.891771 1.370744,-4.749271 1.974874,-6.35 0.60413,-1.600729 1.798681,-4.339167 2.654558,-6.085417 0.855877,-1.74625 2.346596,-4.420828 3.3127087,-5.943506 0.966113,-1.522678 2.729347,-4.02299 3.918299,-5.55625 1.188952,-1.53326 3.471419,-4.099485 5.072148,-5.702723 1.600729,-1.603239 4.04151,-3.819655 5.423958,-4.92537 1.382448,-1.105715 3.585105,-2.725087 4.894792,-3.598604 1.309688,-0.873518 3.452813,-2.1892015 4.7625,-2.9237405 1.309688,-0.734539 3.512344,-1.834185 4.894792,-2.443657 1.382448,-0.609473 3.466042,-1.462499 4.630209,-1.895615 1.164167,-0.433115 3.681675,-1.190088 5.594462,-1.682161 1.912792,-0.492074 5.187002,-1.158105 7.276042,-1.48006996 l 3.79825,-0.58539 h 5.68854 5.68854 l 3.79825,0.58539 c 2.08903,0.32196496 5.39384,0.99433596 7.34401,1.49415896 1.95018,0.499822 4.88441,1.435723 6.52051,2.079779 1.6361,0.644056 3.7562,1.525323 4.71134,1.958372 0.95513,0.433049 2.74107,1.354438 3.96875,2.047532 1.22768,0.693094 3.303699,1.9735765 4.613389,2.8455165 1.30968,0.87194 3.51184,2.492693 4.89368,3.601674 1.38184,1.108982 3.82262,3.332659 5.42396,4.941505 1.60134,1.608847 3.89664,4.188772 5.10067,5.733168 1.20402,1.544396 2.9634,4.038067 3.90971,5.541491 0.94632,1.503425 2.4235,4.16225 3.28262,5.9085 0.85912,1.74625 1.97677,4.261747 2.48366,5.589994 0.50689,1.328247 1.29331,3.709497 1.74759,5.291667 0.45428,1.58217 1.11493,4.438101 1.46809,6.346513 0.35317,1.908412 0.78119,5.123099 0.95115,7.143747 0.18136,2.15612 0.23781,5.19184 0.13666,7.34815 -0.0948,2.02083 -0.34148,4.87833 -0.54818,6.35 -0.2067,1.47167 -0.63088,3.86639 -0.94263,5.3216 -0.31175,1.45521 -1.20067,4.55083 -1.97539,6.87916 -0.77471,2.32834 -1.95408,5.40625 -2.62081,6.8398 -0.66673,1.43355 -2.0532,4.0276 -3.08105,5.76456 -1.02784,1.736963 -2.95936,4.612183 -4.29226,6.389383 -1.3329,1.7772 -3.79723,4.60599 -5.4763,6.28621 -1.67906,1.68022 -4.18393,3.95766 -5.56638,5.06098 -1.38245,1.10333 -3.82323,2.86675 -5.42396,3.91872 -1.60073,1.05197 -4.774449,2.83742 -7.052719,3.96768 -2.53108,1.25567 -5.72143,2.57268 -8.20208,3.38591 -2.23288,0.732 -5.24987,1.58721 -6.70442,1.90047 -1.45455,0.31326 -3.95486,0.74751 -5.55625,0.965 -1.60138,0.21748 -4.93567,0.43831 -7.40953,0.49072 -2.47385,0.0524 -4.91463,0.0468 -5.42396,-0.0124 z M 21.808045,107.81645 c 0.454027,-0.34631 1.161053,-1.24616 1.57117,-1.99968 0.494093,-0.90781 0.69288,-1.58036 0.589206,-1.99343 -0.08605,-0.34286 -0.603248,-0.9708 -1.149321,-1.39542 -0.546073,-0.42462 -1.464018,-0.95537 -2.039878,-1.17945 -0.575859,-0.22407 -1.089575,-0.53508 -1.141592,-0.69113 -0.05202,-0.15605 0.35961,-0.40409 0.914725,-0.5512 0.555116,-0.147123 2.438051,-0.451003 4.184301,-0.675283 1.74625,-0.22428 5.496719,-0.65123 8.334375,-0.94877 2.837657,-0.29754 6.479972,-0.77617 8.094035,-1.06362 1.614063,-0.28745 4.114376,-0.89117 5.556251,-1.34161 1.441874,-0.45044 3.514554,-1.17178 4.605964,-1.60297 1.09141,-0.43119 2.93688,-1.2646 4.10104,-1.85202 1.16417,-0.58743 3.50222,-1.88772 5.19566,-2.88955 l 3.07899,-1.8215 2.12287,-2.24266 c 1.16758,-1.23347 2.47853,-2.87108 2.91323,-3.63914 0.43469,-0.76806 1.00907,-2.02156 1.27639,-2.78554 0.26731,-0.76399 0.56193,-1.38906 0.65469,-1.38906 0.0928,0 0.24254,0.46198 0.33283,1.02662 0.0903,0.56464 0.38999,1.30551 0.66601,1.64637 l 0.50184,0.61975 1.82117,-0.31229 c 1.00164,-0.17176 3.69704,-1.03506 5.98977,-1.91844 l 4.16862,-1.60614 2.96917,-0.40306 c 1.63305,-0.22168 4.51699,-0.4711 6.40876,-0.55427 2.17998,-0.0958 3.83347,-0.0435 4.51515,0.14298 0.59156,0.16181 1.33463,0.56996 1.65127,0.907 0.316629,0.33705 0.828709,1.55877 1.137959,2.71495 l 0.56226,2.10215 0.044,9.525 0.044,9.525013 0.43937,1.29269 c 0.24166,0.71099 0.76305,1.63054 1.15864,2.04345 0.3956,0.41291 1.26559,0.92822 1.93331,1.14512 0.66773,0.2169 2.37363,0.57727 3.79089,0.80082 1.41726,0.22355 3.15498,0.40646 3.8616,0.40646 h 1.28475 l 0.50403,-0.55695 0.50403,-0.55694 v -2.07944 -2.07944 l -0.4433,-0.4433 c -0.24381,-0.24381 -0.7796,-0.44725 -1.19062,-0.45208 -0.41103,-0.005 -1.93795,0.0782 -3.39316,0.18446 -1.68969,0.12342 -2.78926,0.0955 -3.04271,-0.0771 l -0.39688,-0.2704 0.0827,-7.351573 c 0.0472,-4.19813 -0.0411,-8.42975 -0.20598,-9.86511 -0.15879,-1.38245 -0.53648,-3.43626 -0.83931,-4.56402 -0.30282,-1.12776 -0.98404,-2.75009 -1.51381,-3.60517 -0.52976,-0.85508 -1.20134,-1.841 -1.49238,-2.19093 -0.29104,-0.34993 -0.97151,-0.971 -1.51216,-1.38016 l -0.98299,-0.74392 -2.059709,-0.13942 c -1.14824,-0.0777 -3.97289,0.0578 -6.38303,0.30628 -2.37782,0.24513 -5.21315,0.61596 -6.30074,0.82405 -1.08759,0.20809 -4.71614,1.04571 -8.06344,1.86139 -3.34731,0.81568 -6.12558,1.4413 -6.17395,1.39028 -0.0484,-0.051 -0.21867,-1.53736 -0.37845,-3.30299 -0.15979,-1.76563 -0.54181,-4.02782 -0.84895,-5.02709 -0.30714,-0.99926 -1.13067,-3.0329 -1.83007,-4.51918 -0.6994,-1.48629 -1.92092,-3.688946 -2.7145,-4.894796 -0.79358,-1.20585 -2.43972,-3.377902 -3.65808,-4.826782 -1.21837,-1.448879 -3.99611,-4.464471 -6.17277,-6.701314 -2.17665,-2.236843 -4.85686,-4.815434 -5.956019,-5.730202 -1.099158,-0.914769 -2.665153,-2.088322 -3.479989,-2.607898 -0.814836,-0.519575 -2.89843,-1.655549 -4.630209,-2.524386 -1.731778,-0.868838 -5.291812,-2.497834 -7.911188,-3.619993 -2.619375,-1.122159 -6.644318,-2.80035 -8.944317,-3.729314 -2.3,-0.928964 -4.26914,-1.689025 -4.375868,-1.689025 -0.106728,0 -0.569381,0.625078 -1.028119,1.389063 -0.458737,0.763984 -0.91352,1.716484 -1.010628,2.116666 -0.09711,0.400183 -0.102938,1.020935 -0.01296,1.37945 0.09837,0.391935 0.610918,0.912526 1.285454,1.305623 0.617018,0.359577 2.014819,0.951669 3.106226,1.31576 1.091406,0.36409 4.067969,1.208937 6.614583,1.877438 2.546615,0.668501 5.285053,1.457538 6.085417,1.753416 0.800365,0.295877 2.220758,0.956608 3.156431,1.468291 0.935672,0.511684 2.423953,1.475865 3.307291,2.142626 0.883339,0.666761 1.709138,1.302048 1.835109,1.411748 0.125972,0.109701 -0.498343,0.1335 -1.387365,0.05289 l -1.616405,-0.14657 -1.196874,0.45709 c -0.69076,0.263804 -1.481579,0.830357 -1.870153,1.339805 -0.370304,0.485493 -1.019878,1.695254 -1.443499,2.688357 -0.502258,1.177459 -0.77181,2.265888 -0.774792,3.12856 -0.0029,0.838668 0.221258,1.807871 0.612375,2.64776 0.339321,0.728663 1.076659,1.728474 1.638528,2.221802 0.56187,0.493328 1.787853,1.255542 2.724408,1.693809 l 1.702828,0.796849 1.927312,0.123687 1.927313,0.123688 1.181503,-0.571956 c 0.663257,-0.321077 1.487273,-1.013182 1.878601,-1.577868 0.383403,-0.553252 0.813413,-1.411482 0.955577,-1.907178 0.142164,-0.495696 0.258479,-1.531873 0.258479,-2.302615 0,-0.89843 -0.200624,-1.801123 -0.559025,-2.515289 -0.307464,-0.612666 -0.799584,-1.411595 -1.093601,-1.775397 -0.294016,-0.363802 1.163169,1.064948 3.238186,3.175 2.07502,2.110052 4.63824,4.867757 5.69604,6.128233 1.05779,1.260476 2.7225,3.503894 3.69934,4.985372 0.97684,1.48148 2.19379,3.59769 2.70433,4.70269 0.51054,1.10499 1.15099,3.08829 1.42322,4.40733 0.27224,1.31904 0.49216,2.93403 0.48873,3.58888 -0.003,0.65484 -0.15834,1.97584 -0.34423,2.93555 -0.18589,0.95971 -0.65598,2.28756 -1.04465,2.95079 -0.38868,0.66322 -1.4348,1.86476 -2.32472,2.67009 -0.88991,0.80533 -2.88599,2.23281 -4.43572,3.17218 -1.54973,0.93937 -3.57956,2.08866 -4.51073,2.55398 -0.93117,0.46533 -2.77664,1.262 -4.101041,1.7704 -1.324402,0.50839 -4.193941,1.38183 -6.376754,1.94099 -2.439141,0.62481 -5.447372,1.17534 -7.805209,1.42842 -2.110052,0.22648 -5.681927,0.60093 -7.9375,0.8321 -2.255573,0.23118 -5.020518,0.5803 -6.144323,0.77583 -1.123805,0.19552 -2.682163,0.64799 -3.463019,1.00547 -0.944213,0.43228 -1.611098,0.95961 -1.991069,1.57442 -0.314233,0.50844 -0.646238,1.29896 -0.737789,1.75671 -0.09155,0.45776 -0.01266,1.381593 0.175312,2.052973 0.187973,0.67137 0.898612,2.06912 1.579197,3.10612 0.680585,1.03699 1.846505,2.45098 2.590932,3.14221 0.744428,0.69122 1.555727,1.25677 1.802887,1.25677 0.24716,0 0.820858,-0.28334 1.274886,-0.62964 z"
       id="path2" /></g></svg>
