                 <svg
                  xmlns="http://www.w3.org/2000/svg"
                  className="h-6 w-6"
                  fill="gray"
                  viewBox="0 0 24 24"
                >
                  <path d="M23.498 6.186a2.986 2.986 0 00-2.104-2.113C19.2 3.5 12 3.5 12 3.5s-7.2 0-9.394.573A2.986 2.986 0 00.502 6.186C0 8.387 0 12 0 12s0 3.613.502 5.814a2.986 2.986 0 002.104 2.113C4.8 20.5 12 20.5 12 20.5s7.2 0 9.394-.573a2.986 2.986 0 002.104-2.113C24 15.613 24 12 24 12s0-3.613-.502-5.814zM9.75 15.568V8.432L15.818 12 9.75 15.568z" />
                </svg>